<?xml version="1.0" standalone="no"?>
<!DOCTYPE svg PUBLIC "-//W3C//DTD SVG 20010904//EN"
 "http://www.w3.org/TR/2001/REC-SVG-20010904/DTD/svg10.dtd">
<svg version="1.0" xmlns="http://www.w3.org/2000/svg"
 width="333.000000pt" height="333.000000pt" viewBox="0 0 333.000000 333.000000"
 preserveAspectRatio="xMidYMid meet">
<metadata>
Created by potrace 1.11, written by Peter Selinger 2001-2013
</metadata>
<g transform="translate(0.000000,333.000000) scale(0.100000,-0.100000)"
fill="#000000" stroke="none">
<path d="M523 2630 c-107 -50 -180 -132 -217 -243 -22 -67 -27 -118 -30 -318
-2 -102 -8 -192 -15 -218 -17 -60 -67 -108 -120 -117 l-41 -7 0 -73 c0 -41 3
-74 8 -75 81 -8 125 -46 157 -134 4 -11 9 -110 11 -220 2 -110 6 -211 10 -225
3 -14 8 -36 11 -49 5 -29 43 -120 58 -139 62 -80 212 -179 235 -156 5 5 16 31
24 57 l14 47 -31 22 c-108 73 -134 156 -136 433 -1 105 -6 209 -12 233 -14 64
-53 135 -94 171 l-37 32 45 44 c83 81 91 121 101 475 3 94 10 163 20 196 20
63 67 129 111 155 l34 20 -16 52 c-8 29 -18 55 -22 59 -4 4 -34 -5 -68 -22z"/>
<path d="M2776 2603 c-20 -63 -24 -55 48 -105 32 -23 84 -129 92 -188 3 -25 7
-128 9 -230 1 -105 8 -204 15 -230 21 -78 56 -133 112 -176 l28 -22 -34 -25
c-49 -38 -93 -111 -107 -175 -6 -32 -13 -142 -15 -247 -3 -218 -5 -233 -45
-321 -17 -38 -65 -90 -105 -112 -15 -8 -15 -13 0 -66 9 -31 22 -56 29 -56 28
0 116 50 163 93 52 47 106 136 120 197 4 19 10 42 12 50 2 8 7 114 11 235 6
201 9 224 29 263 25 46 66 77 116 86 l32 6 0 72 c-1 65 -3 73 -21 76 -44 7
-96 37 -115 66 -31 51 -39 111 -40 297 -2 188 -14 265 -55 357 -28 62 -102
136 -171 173 -87 47 -88 47 -108 -18z"/>
<path d="M810 1768 l0 -748 95 0 95 0 2 302 3 302 120 1 c66 1 125 -2 131 -6
6 -5 68 -141 139 -304 l130 -295 102 0 c60 0 103 4 103 10 0 5 -11 33 -25 62
-14 29 -78 170 -143 313 l-119 260 49 32 c143 95 202 256 174 478 -15 122 -86
231 -183 282 -95 50 -143 57 -420 58 l-253 1 0 -748z m500 572 c84 -20 147
-91 165 -185 31 -169 -39 -322 -164 -354 -32 -9 -177 -15 -273 -12 l-38 1 0
279 c0 253 2 280 17 283 37 7 249 -1 293 -12z"/>
<path d="M1905 2510 c-1 -3 -3 -339 -3 -747 l0 -743 388 0 388 0 -1 82 -2 83
-290 0 -290 0 -2 615 c-1 338 -2 638 -3 665 l0 51 -91 -1 c-50 0 -92 -2 -94
-5z"/>
</g>
</svg>
